<?xml version="1.0" standalone="no"?>
<!DOCTYPE svg PUBLIC "-//W3C//DTD SVG 20010904//EN"
 "http://www.w3.org/TR/2001/REC-SVG-20010904/DTD/svg10.dtd">
<svg version="1.0" xmlns="http://www.w3.org/2000/svg"
 width="564.000000pt" height="564.000000pt" viewBox="0 0 564.000000 564.000000"
 preserveAspectRatio="xMidYMid meet">
<metadata>
Created by potrace 1.14, written by Peter Selinger 2001-2017
</metadata>
<g transform="translate(0.000000,564.000000) scale(0.100000,-0.100000)"
fill="#000000" stroke="none">
<path d="M2470 5444 c-201 -25 -327 -56 -511 -125 -472 -175 -868 -492 -1133
-909 -62 -98 -168 -313 -205 -417 -33 -93 -34 -86 24 -233 98 -246 278 -541
482 -790 101 -123 321 -349 448 -460 113 -98 283 -230 296 -230 5 0 -9 33 -31
73 -94 172 -161 385 -181 572 -51 483 207 924 680 1161 470 235 1207 217 1961
-49 222 -78 526 -216 731 -333 45 -25 83 -43 87 -40 7 7 -13 95 -43 188 -165
518 -530 980 -984 1248 -300 176 -598 278 -981 335 -191 29 -459 33 -640 9z"/>
<path d="M3436 3918 c4 -6 24 -25 43 -42 260 -222 422 -464 492 -731 20 -75
23 -114 23 -240 0 -130 -4 -164 -27 -253 -54 -207 -147 -386 -299 -574 l-21
-27 48 -53 c27 -29 101 -109 165 -178 125 -134 333 -358 494 -533 55 -59 107
-107 116 -107 9 0 65 48 124 107 285 283 469 638 561 1078 37 176 44 269 45
540 l0 271 -47 45 c-240 231 -663 459 -1073 579 -41 12 -86 26 -100 30 -30 10
-128 33 -255 60 -66 14 -244 40 -273 40 -15 0 -21 -4 -16 -12z"/>
<path d="M426 3184 c-16 -120 2 -483 33 -664 77 -450 235 -816 485 -1126 87
-109 274 -285 383 -363 285 -203 672 -384 988 -462 175 -43 289 -59 475 -66
255 -9 469 19 666 86 49 17 92 31 96 31 3 0 104 -114 224 -252 119 -139 227
-263 238 -276 l22 -22 96 39 c155 63 265 130 364 221 71 65 136 146 132 164
-2 11 -404 493 -585 702 -10 12 -74 88 -143 170 -69 82 -192 228 -275 325 -82
97 -193 227 -245 289 -157 187 -331 390 -335 390 -2 0 -52 -27 -112 -60 -218
-122 -428 -194 -600 -207 -54 -4 -83 -10 -83 -18 0 -6 58 -86 130 -176 71 -90
130 -167 130 -171 0 -12 -30 -10 -141 13 -634 127 -1207 484 -1612 1004 -88
113 -224 319 -268 407 -19 37 -39 68 -45 68 -6 0 -14 -21 -18 -46z"/>
</g>
</svg>
